<?xml version="1.0" encoding="utf-8"?>
<!-- Generator: Adobe Illustrator 19.2.1, SVG Export Plug-In . SVG Version: 6.00 Build 0)  -->
<svg version="1.1" id="Layer_1" xmlns="http://www.w3.org/2000/svg" xmlns:xlink="http://www.w3.org/1999/xlink" x="0px" y="0px"
	 viewBox="0 0 283.6 283" style="enable-background:new 0 0 283.6 283;" xml:space="preserve">
<style type="text/css">
	.st0{fill:url(#SVGID_1_);}
	.st1{fill:#FFFFFF;}
</style>
<radialGradient id="SVGID_1_" cx="49.7502" cy="236.7009" r="264.5797" gradientTransform="matrix(1 0 0 -1 0 286.1239)" gradientUnits="userSpaceOnUse">
	<stop  offset="0" style="stop-color:#9DD5F6"/>
	<stop  offset="7.110000e-002" style="stop-color:#98D3F5"/>
	<stop  offset="0.1575" style="stop-color:#89CEF3"/>
	<stop  offset="0.2516" style="stop-color:#70C6EF"/>
	<stop  offset="0.3514" style="stop-color:#4EBBEA"/>
	<stop  offset="0.4546" style="stop-color:#23ADE3"/>
	<stop  offset="0.5" style="stop-color:#0DA6E0"/>
	<stop  offset="1" style="stop-color:#2E77BC"/>
</radialGradient>
<path class="st0" d="M281.9,0H0v283h281.9v-93.4c1.1-1.6,1.7-3.7,1.7-6.2c0-2.9-0.6-4.7-1.7-6.2"/>
<path class="st1" d="M25.4,122.4L20,109.2l-5.4,13.2 M144.9,117.2c-1.1,0.7-2.4,0.7-3.9,0.7h-9.6v-7.4h9.8c1.4,0,2.8,0.1,3.8,0.6
	c1,0.5,1.7,1.5,1.7,2.9C146.5,115.5,145.9,116.6,144.9,117.2z M213.6,122.4l-5.5-13.2l-5.5,13.2H213.6z M85.6,136.8h-8.1l0-26
	l-11.5,26h-7l-11.5-26v26H31.3l-3-7.4H11.8l-3.1,7.4H0.1l14.2-33.2h11.8L39.5,135v-31.4h12.9l10.4,22.5l9.5-22.5h13.2L85.6,136.8
	L85.6,136.8z M117.9,136.8H91.5v-33.2h26.5v6.9H99.4v6h18.1v6.8H99.4v6.6h18.5V136.8z M155.3,112.5c0,5.3-3.5,8-5.6,8.8
	c1.7,0.7,3.2,1.8,3.9,2.8c1.1,1.6,1.3,3.1,1.3,6.1v6.5h-8l0-4.2c0-2,0.2-4.9-1.3-6.5c-1.2-1.2-2.9-1.4-5.8-1.4h-8.5v12.1h-7.9v-33.2
	h18.2c4.1,0,7,0.1,9.6,1.6C153.8,106.7,155.3,108.8,155.3,112.5z M167.9,136.8h-8.1v-33.2h8.1V136.8z M261.8,136.8h-11.2l-15-24.9
	v24.9h-16.1l-3.1-7.4h-16.5l-3,7.4h-9.3c-3.9,0-8.7-0.9-11.5-3.7c-2.8-2.8-4.2-6.6-4.2-12.7c0-4.9,0.9-9.4,4.3-13
	c2.6-2.6,6.6-3.9,12-3.9h7.7v7.1h-7.5c-2.9,0-4.5,0.4-6.1,2c-1.4,1.4-2.3,4-2.3,7.5c0,3.6,0.7,6.1,2.2,7.8c1.2,1.3,3.4,1.7,5.5,1.7
	h3.6l11.2-26.1h11.9l13.4,31.4v-31.4h12.1l13.9,23.1v-23.1h8.1L261.8,136.8L261.8,136.8z M0,143.3h13.5l3.1-7.4h6.8l3,7.4h26.6v-5.6
	l2.4,5.7h13.8l2.4-5.7v5.7h66.2l0-12.1h1.3c0.9,0,1.2,0.1,1.2,1.6v10.5h34.2v-2.8c2.8,1.5,7.1,2.8,12.7,2.8h14.4l3.1-7.4h6.8l3,7.4
	h27.8v-7l4.2,7h22.2V97h-22v5.5l-3.1-5.5h-22.6v5.5l-2.8-5.5h-30.5c-5.1,0-9.6,0.7-13.2,2.7V97h-21.1v2.7c-2.3-2-5.5-2.7-8.9-2.7
	H67.6L62.5,109L57.2,97H32.9v5.5L30.3,97H9.6L0,119L0,143.3L0,143.3z"/>
<path class="st1" d="M281.9,167.7h-14.4c-1.4,0-2.4,0.1-3.2,0.6c-0.8,0.5-1.2,1.3-1.2,2.4c0,1.3,0.7,2.1,1.7,2.5
	c0.8,0.3,1.7,0.4,3.1,0.4l4.3,0.1c4.3,0.1,7.2,0.9,9,2.7c0.3,0.3,0.5,0.5,0.7,0.8 M281.9,189.6c-1.9,2.8-5.7,4.2-10.8,4.2h-15.3
	v-7.1h15.2c1.5,0,2.6-0.2,3.2-0.8c0.6-0.5,0.9-1.3,0.9-2.2c0-1-0.4-1.7-1-2.2c-0.6-0.5-1.4-0.7-2.8-0.7c-7.4-0.3-16.7,0.2-16.7-10.3
	c0-4.8,3.1-9.9,11.4-9.9h15.8v-6.6h-14.7c-4.4,0-7.6,1.1-9.9,2.7v-2.7h-21.7c-3.5,0-7.5,0.9-9.5,2.7v-2.7h-38.7v2.7
	c-3.1-2.2-8.3-2.7-10.7-2.7h-25.6v2.7c-2.4-2.4-7.9-2.7-11.2-2.7h-28.6l-6.5,7.1l-6.1-7.1H56.1v46.3H98l6.7-7.2l6.4,7.2l25.8,0
	v-10.9h2.5c3.4,0.1,7.5-0.1,11-1.6v12.5h21.3v-12.1h1c1.3,0,1.4,0.1,1.4,1.4v10.7H239c4.1,0,8.4-1.1,10.8-3v3h20.5
	c4.3,0,8.4-0.6,11.6-2.1L281.9,189.6L281.9,189.6z M250.3,176.3c1.5,1.6,2.4,3.6,2.4,7c0,7.1-4.5,10.5-12.4,10.5h-15.4v-7.1h15.4
	c1.5,0,2.6-0.2,3.2-0.8c0.5-0.5,0.9-1.3,0.9-2.2c0-1-0.4-1.7-1-2.2c-0.6-0.5-1.4-0.7-2.8-0.7c-7.4-0.3-16.7,0.2-16.7-10.3
	c0-4.8,3-9.9,11.3-9.9h15.9v7.1h-14.5c-1.4,0-2.4,0.1-3.2,0.6c-0.9,0.5-1.2,1.3-1.2,2.4c0,1.3,0.7,2.1,1.7,2.5
	c0.8,0.3,1.7,0.4,3.1,0.4l4.3,0.1C245.6,173.8,248.5,174.5,250.3,176.3z M178.8,174.3c-1.1,0.6-2.4,0.7-3.9,0.7h-9.6v-7.4h9.8
	c1.4,0,2.8,0,3.8,0.6c1,0.5,1.6,1.6,1.6,3S179.9,173.7,178.8,174.3z M183.6,178.4c1.8,0.7,3.2,1.8,3.9,2.8c1.1,1.6,1.3,3.1,1.3,6.1
	v6.6h-8v-4.1c0-2,0.2-4.9-1.3-6.5c-1.2-1.2-2.9-1.5-5.8-1.5h-8.5v12.1h-8v-33.2h18.3c4,0,6.9,0.2,9.5,1.6c2.5,1.5,4.1,3.6,4.1,7.4
	C189.2,174.9,185.7,177.6,183.6,178.4z M193.6,160.7h26.4v6.9h-18.6v6h18.1v6.8h-18.1v6.6l18.6,0v6.9h-26.4V160.7z M140.2,176h-10.2
	v-8.4h10.3c2.9,0,4.8,1.2,4.8,4.1C145.1,174.5,143.2,176,140.2,176z M122,190.8l-12.2-13.5l12.2-13.1V190.8z M90.6,186.9H71.1v-6.6
	h17.4v-6.8H71.1v-6H91l8.7,9.7L90.6,186.9z M153.6,171.6c0,9.2-6.9,11.1-13.8,11.1h-9.9v11.1h-15.4l-9.8-11l-10.1,11H63.2v-33.2
	h31.9l9.8,10.9l10.1-10.9h25.3C146.5,160.7,153.6,162.4,153.6,171.6z"/>
</svg>
