<?xml version="1.0" encoding="UTF-8" standalone="no"?>
<!-- Created with Inkscape (http://www.inkscape.org/) -->

<svg
   xmlns:dc="http://purl.org/dc/elements/1.1/"
   xmlns:cc="http://creativecommons.org/ns#"
   xmlns:rdf="http://www.w3.org/1999/02/22-rdf-syntax-ns#"
   xmlns:svg="http://www.w3.org/2000/svg"
   xmlns="http://www.w3.org/2000/svg"
   xmlns:sodipodi="http://sodipodi.sourceforge.net/DTD/sodipodi-0.dtd"
   xmlns:inkscape="http://www.inkscape.org/namespaces/inkscape"
   width="282.2222mm"
   height="180.51431mm"
   viewBox="0 0 999.99992 639.61764"
   id="svg10774"
   version="1.1"
   inkscape:version="0.91 r13725"
   sodipodi:docname="Discover Network logo.svg">
  <defs
     id="defs10776">
    <radialGradient
       fx="0"
       fy="0"
       cx="0"
       cy="0"
       r="1"
       gradientUnits="userSpaceOnUse"
       gradientTransform="matrix(2.8798218,0,0,-2.8798218,391.51562,565.88867)"
       spreadMethod="pad"
       id="radialGradient280">
      <stop
         style="stop-opacity:1;stop-color:#feefe1"
         offset="0"
         id="stop282" />
      <stop
         style="stop-opacity:1;stop-color:#feefe1"
         offset="0.005618"
         id="stop284" />
      <stop
         style="stop-opacity:1;stop-color:#feefe1"
         offset="0.26717714"
         id="stop286" />
      <stop
         style="stop-opacity:1;stop-color:#f46f1b"
         offset="1"
         id="stop288" />
    </radialGradient>
  </defs>
  <sodipodi:namedview
     id="base"
     pagecolor="#ffffff"
     bordercolor="#666666"
     borderopacity="1.0"
     inkscape:pageopacity="0.0"
     inkscape:pageshadow="2"
     inkscape:zoom="3.959798"
     inkscape:cx="80.812028"
     inkscape:cy="35.890688"
     inkscape:document-units="px"
     inkscape:current-layer="layer1"
     showgrid="false"
     fit-margin-top="0"
     fit-margin-left="0"
     fit-margin-right="0"
     fit-margin-bottom="0"
     inkscape:window-width="1366"
     inkscape:window-height="705"
     inkscape:window-x="-8"
     inkscape:window-y="-8"
     inkscape:window-maximized="1" />
  <metadata
     id="metadata10779">
    <rdf:RDF>
      <cc:Work
         rdf:about="">
        <dc:format>image/svg+xml</dc:format>
        <dc:type
           rdf:resource="http://purl.org/dc/dcmitype/StillImage" />
        <dc:title></dc:title>
      </cc:Work>
    </rdf:RDF>
  </metadata>
  <g
     inkscape:label="Layer 1"
     inkscape:groupmode="layer"
     id="layer1"
     transform="translate(-281.01395,100.02687)">
    <path
       d="m 284.6272,-96.352815 992.7431,-0.101212 0.04,632.375867 -992.71771,0.0202 -0.081,-632.299955 z"
       style="fill:#ffffff;fill-opacity:1;fill-rule:nonzero;stroke:none"
       id="path262"
       inkscape:connector-curvature="0" />
    <path
       d="m 1273.8025,-92.75977 0,625.06326 c -7.2367,0 -978.29496,0.0607 -985.48105,0.0607 0,-7.2114 -0.0202,-617.953083 -0.0202,-625.063263 7.21139,0 978.26965,-0.04049 985.50635,-0.04049 m 3.5677,-7.287307 -996.36135,0.08098 0.0202,639.53665 999.97975,-0.0202 -0.081,-639.58827 -3.5677,0 z"
       style="fill:#231f20;fill-opacity:1;fill-rule:nonzero;stroke:none"
       id="path264"
       inkscape:connector-curvature="0" />
    <path
       d="m 1273.7266,255.2848 c 0,0 -271.2749,191.34228 -767.97534,277.06929 l 767.97534,0 0,-277.06929 z"
       style="fill:#f46f1b;fill-opacity:1;fill-rule:nonzero;stroke:none"
       id="path266"
       inkscape:connector-curvature="0" />
    <g
       transform="matrix(25.303132,0,0,-25.303132,-9101.949,14453.125)"
       id="g268">
      <g
         id="g270">
        <g
           id="g276">
          <g
             id="g278">
            <path
               d="m 391.52,568.736 c -1.611,0 -2.917,-1.256 -2.917,-2.81 0,-1.652 1.249,-2.884 2.917,-2.884 1.626,0 2.908,1.249 2.908,2.851 0,1.594 -1.274,2.843 -2.908,2.843"
               style="fill:url(#radialGradient280);stroke:none"
               id="path290"
               inkscape:connector-curvature="0" />
          </g>
        </g>
      </g>
    </g>
    <path
       d="m 417.24091,168.87461 c -8.52716,7.66685 -19.50871,11.00686 -36.94257,11.00686 l -7.2873,0 0,-91.546728 7.2873,0 c 17.43386,0 28.03587,3.162892 36.94257,11.23459 9.36216,8.248818 14.95415,21.153418 14.95415,34.437558 0,13.23354 -5.59199,26.5936 -14.95415,34.86772 M 385.6879,64.904042 l -39.65,0 0,138.382828 39.47288,0 c 20.951,0 36.03166,-4.93411 49.36641,-15.94097 15.76385,-13.08172 25.10071,-32.81817 25.10071,-53.16188 0,-40.889864 -30.51558,-69.279978 -74.29,-69.279978"
       style="fill:#231f20;fill-opacity:1;fill-rule:nonzero;stroke:none"
       id="path292"
       inkscape:connector-curvature="0" />
    <path
       d="m 472.45234,203.28687 26.97314,0 0,-138.382828 -26.97314,0 0,138.382828 z"
       style="fill:#231f20;fill-opacity:1;fill-rule:nonzero;stroke:none"
       id="path294"
       inkscape:connector-curvature="0" />
    <path
       d="m 565.44135,118.04062 c -16.21931,-6.02215 -21.0269,-9.99474 -21.0269,-17.45916 0,-8.729583 8.55246,-15.3337 20.1919,-15.3337 8.0717,0 14.75172,3.31471 21.78599,11.158681 L 600.48619,77.935155 C 588.92266,67.788599 574.98063,62.550851 559.82406,62.550851 c -24.54404,0 -43.11654,17.104917 -43.11654,39.675309 0,19.10387 8.67897,28.84557 33.9568,38.0053 10.55141,3.69426 15.99158,6.17397 18.67371,7.89458 5.46548,3.54244 8.14761,8.45125 8.14761,14.32157 0,11.20929 -8.95731,19.48342 -20.95099,19.48342 -12.85399,0 -23.27888,-6.427 -29.50345,-18.44599 l -17.43386,16.80128 c 12.47444,18.24356 27.37799,26.36587 47.94943,26.36587 27.95996,0 47.72171,-18.69902 47.72171,-45.46973 0,-22.01373 -9.13443,-31.93255 -39.82713,-43.14184"
       style="fill:#231f20;fill-opacity:1;fill-rule:nonzero;stroke:none"
       id="path296"
       inkscape:connector-curvature="0" />
    <path
       d="m 613.77033,134.18402 c 0,40.71274 31.95786,72.21513 73.10075,72.21513 11.58883,0 21.53296,-2.22667 33.80498,-8.04639 l 0,-31.73013 c -10.82974,10.77914 -20.29311,15.13127 -32.56513,15.13127 -27.20086,0 -46.55776,-19.71114 -46.55776,-47.74701 0,-26.59359 19.91356,-47.54458 45.31791,-47.54458 12.80338,0 22.57039,4.554564 33.80498,15.58673 l 0,-31.730128 c -11.86717,-6.072751 -21.60887,-8.552458 -33.19771,-8.552458 -40.91516,0 -73.70802,32.16028 -73.70802,72.417566"
       style="fill:#231f20;fill-opacity:1;fill-rule:nonzero;stroke:none"
       id="path298"
       inkscape:connector-curvature="0" />
    <path
       d="m 939.42163,157.89305 -36.91726,-92.989008 -29.47815,0 58.67796,141.950568 14.59991,0 59.79131,-141.950568 -29.27574,0 -37.39803,92.989008 z"
       style="fill:#231f20;fill-opacity:1;fill-rule:nonzero;stroke:none"
       id="path300"
       inkscape:connector-curvature="0" />
    <path
       d="m 1018.3168,203.28687 76.5673,0 0,-23.4054 -49.5942,0 0,-37.34742 47.6964,0 0,-23.48131 -47.6964,0 0,-30.717998 49.5942,0 0,-23.4307 -76.5673,0 0,138.382828 z"
       style="fill:#231f20;fill-opacity:1;fill-rule:nonzero;stroke:none"
       id="path302"
       inkscape:connector-curvature="0" />
    <path
       d="m 1147.5652,128.59202 -7.844,0 0,-41.901981 8.2995,0 c 16.8771,0 25.9357,7.008967 25.9357,20.546141 0,13.86612 -9.0586,21.35584 -26.3912,21.35584 m 54.174,-22.82342 c 0,-25.910407 -17.8134,-40.864558 -48.9363,-40.864558 l -40.0801,0 0,138.382828 26.9984,0 0,-55.56568 3.5172,0 37.3727,55.56568 33.223,0 -43.6226,-58.27311 c 20.369,-4.20032 31.5277,-18.06644 31.5277,-39.24516"
       style="fill:#231f20;fill-opacity:1;fill-rule:nonzero;stroke:none"
       id="path304"
       inkscape:connector-curvature="0" />
    <path
       d="m 1215.7065,76.84712 -0.5324,0 0,-3.112285 0.5567,0 c 1.417,0 2.1508,0.479748 2.1508,1.518188 0,1.089047 -0.8097,1.59511 -2.1761,1.59511 m 5.1112,-1.643692 c 0,-2.403797 -1.6194,-3.744863 -4.6051,-3.744863 l -3.9473,0 0,12.221412 2.9098,0 0,-4.731685 3.416,4.731685 3.5424,0 -4.0232,-4.984717 c 1.7206,-0.532378 2.7074,-1.797534 2.7074,-3.491832"
       style="fill:#231f20;fill-opacity:1;fill-rule:nonzero;stroke:none"
       id="path306"
       inkscape:connector-curvature="0" />
    <path
       d="m 1216.744,86.285188 c -4.6558,0 -8.4766,-3.896682 -8.4766,-8.72958 0,-4.832898 3.7702,-8.754883 8.4766,-8.754883 4.5798,0 8.3753,3.997894 8.3753,8.754883 0,4.832898 -3.7955,8.72958 -8.3753,8.72958 m 0.081,-19.382198 c -5.9462,0 -10.7032,4.706382 -10.7032,10.576709 0,5.971539 4.8076,10.728527 10.7032,10.728527 5.7185,0 10.5008,-4.807595 10.5008,-10.728527 0,-5.794417 -4.7823,-10.576709 -10.5008,-10.576709"
       style="fill:#231f20;fill-opacity:1;fill-rule:nonzero;stroke:none"
       id="path308"
       inkscape:connector-curvature="0" />
    <path
       d="m 587.96114,239.67277 36.10757,37.85349 0,-35.85454 5.18714,0 0,48.35428 -36.08227,-37.72697 0,35.67742 -5.21244,0 0,-48.30368 z"
       style="fill:#231f20;fill-opacity:1;fill-rule:nonzero;stroke:none"
       id="path310"
       inkscape:connector-curvature="0" />
    <path
       d="m 588.4925,240.86202 c 1.59511,1.72061 36.05697,37.90409 36.05697,37.90409 l 0,-36.63893 4.20032,0 0,46.73488 c -1.54451,-1.69632 -36.10757,-37.75227 -36.10757,-37.75227 l 0,36.3859 -4.14972,0 0,-46.63367 z m -0.98783,-1.18824 0,48.78444 6.12336,0 0,-34.94362 c 1.56879,1.64571 36.08226,37.72697 36.08226,37.72697 l 0,-50.0496 -6.09805,0 0,35.14605 c -1.59511,-1.67001 -36.10757,-37.82818 -36.10757,-37.82818 l 0,1.16394 z"
       style="fill:#231f20;fill-opacity:1;fill-rule:nonzero;stroke:none"
       id="path312"
       inkscape:connector-curvature="0" />
    <path
       d="m 654.20474,241.67172 24.03797,0 0,4.75699 -18.85083,0 0,13.7649 18.31947,0 0,4.8076 -18.31947,0 0,18.19295 18.85083,0 0,4.78229 -24.03797,0 0,-46.30473 z"
       style="fill:#231f20;fill-opacity:1;fill-rule:nonzero;stroke:none"
       id="path314"
       inkscape:connector-curvature="0" />
    <path
       d="m 677.76195,242.12718 0,3.82077 -18.85083,0 0,14.75172 18.26886,0 0,3.77017 -18.26886,0 0,19.23038 18.85083,0 0,3.79547 -23.02585,0 0,-45.36851 23.02585,0 z m 0.48177,-0.93521 -24.49343,0 0,47.26625 24.97419,0 0,-5.76911 -18.87613,0 0,-17.23144 18.34477,0 0,-5.74381 -18.34477,0 0,-12.80338 18.87613,0 0,-5.71851 -0.48177,0 z"
       style="fill:#231f20;fill-opacity:1;fill-rule:nonzero;stroke:none"
       id="path316"
       inkscape:connector-curvature="0" />
    <path
       d="m 714.72983,287.97645 -5.16184,0 0,-41.54774 -11.23459,0 0,-4.75699 27.65632,0 0,4.75699 -11.25989,0 0,41.54774 z"
       style="fill:#231f20;fill-opacity:1;fill-rule:nonzero;stroke:none"
       id="path318"
       inkscape:connector-curvature="0" />
    <path
       d="m 725.53426,242.12718 0,3.82077 -11.3358,0 0,41.54774 -4.22562,0 0,-41.54774 -11.15868,0 0,-3.82077 26.7201,0 z m 0.45546,-0.93521 -28.13708,0 0,5.71851 11.23459,0 0,41.54774 6.12336,0 0,-41.54774 11.28519,0 0,-5.71851 -0.50606,0 z"
       style="fill:#231f20;fill-opacity:1;fill-rule:nonzero;stroke:none"
       id="path320"
       inkscape:connector-curvature="0" />
    <path
       d="m 760.52849,276.38762 14.95416,-37.1197 15.00475,37.1197 12.0949,-34.7159 5.6679,0 -17.7628,48.68322 -15.00475,-37.27151 -14.95416,37.27151 -17.7881,-48.68322 5.6173,0 12.1708,34.7159 z"
       style="fill:#231f20;fill-opacity:1;fill-rule:nonzero;stroke:none"
       id="path322"
       inkscape:connector-curvature="0" />
    <path
       d="m 760.98395,276.56474 c 0,0 13.689,-33.95681 14.4987,-36.00636 0.8603,2.04955 15.03006,37.1703 15.03006,37.1703 0,0 12.22141,-34.96893 12.42383,-35.6015 l 4.63048,0 c -0.48178,1.21455 -16.32052,44.66002 -17.07962,46.8867 -0.91091,-2.20137 -15.00475,-37.22091 -15.00475,-37.22091 0,0 -14.06855,35.01954 -14.95416,37.22091 -0.8097,-2.22668 -16.59885,-45.67215 -17.07961,-46.8867 l 4.50396,0 c 0.25303,0.63156 12.52505,35.6015 12.52505,35.6015 l 0.50606,-1.16394 z m 14.04324,-37.47394 c 0,0 -13.58778,33.70377 -14.4987,35.87984 -0.8097,-2.22668 -11.86716,-33.77968 -11.86716,-33.77968 l -6.57882,0 18.39538,50.53035 c 0,0 14.19506,-35.24726 15.00476,-37.34742 0.8603,2.10016 15.03006,37.34742 15.03006,37.34742 l 18.47128,-50.53035 -6.68003,0 c 0,0 -11.10807,31.553 -11.86716,33.77968 -0.8846,-2.17607 -14.95415,-36.96787 -14.95415,-36.96787 l -0.45546,1.08702 z"
       style="fill:#231f20;fill-opacity:1;fill-rule:nonzero;stroke:none"
       id="path324"
       inkscape:connector-curvature="0" />
    <path
       d="m 831.7062,264.82408 c 0,10.39959 8.55246,19.12917 19.10387,19.12917 10.45019,0 18.97735,-8.72958 18.97735,-19.12917 0,-10.5008 -8.42595,-19.20507 -18.97735,-19.20507 -10.65262,0 -19.10387,8.70427 -19.10387,19.20507 m 43.19245,0.0203 c 0,13.36005 -10.95626,23.93676 -24.08858,23.93676 -13.20824,0 -24.13919,-10.57671 -24.13919,-23.93676 0,-13.20824 10.93095,-24.01267 24.13919,-24.01267 13.13232,0 24.08858,10.80443 24.08858,24.01267"
       style="fill:#231f20;fill-opacity:1;fill-rule:nonzero;stroke:none"
       id="path326"
       inkscape:connector-curvature="0" />
    <path
       d="m 827.05043,264.84939 c 0,-12.9299 10.70322,-23.48131 23.75964,-23.48131 12.9805,0 23.58252,10.55141 23.58252,23.48131 0,12.90459 -10.60202,23.4813 -23.58252,23.4813 -13.05642,0 -23.75964,-10.57671 -23.75964,-23.4813 m -0.86031,0 c 0,13.43596 10.98156,24.39222 24.61995,24.39222 13.56248,0 24.59464,-10.95626 24.59464,-24.39222 0,-13.48657 -11.03216,-24.46813 -24.59464,-24.46813 -13.63839,0 -24.61995,10.98156 -24.61995,24.46813"
       style="fill:#231f20;fill-opacity:1;fill-rule:nonzero;stroke:none"
       id="path328"
       inkscape:connector-curvature="0" />
    <path
       d="m 832.26287,264.82408 c 0,-10.29837 8.29943,-18.72431 18.5472,-18.72431 10.17186,0 18.42068,8.42594 18.42068,18.72431 0,10.27308 -8.24882,18.67372 -18.42068,18.67372 -10.24777,0 -18.5472,-8.40064 -18.5472,-18.67372 m -0.98581,0 c 0,10.82974 8.75489,19.60993 19.53402,19.60993 10.70322,0 19.45811,-8.78019 19.45811,-19.60993 0,-10.82974 -8.75489,-19.66053 -19.45811,-19.66053 -10.77913,0 -19.53402,8.83079 -19.53402,19.66053"
       style="fill:#231f20;fill-opacity:1;fill-rule:nonzero;stroke:none"
       id="path330"
       inkscape:connector-curvature="0" />
    <path
       d="m 902.40315,263.07817 1.64572,0 c 5.81972,0 11.69005,-1.08905 11.69005,-8.27413 0,-7.66684 -5.6173,-8.37533 -11.76596,-8.37533 l -1.56879,0 0,16.64946 z m 0,24.89828 -5.11123,0 0,-46.30473 6.68003,0 c 8.70427,0 16.9531,2.30258 16.9531,12.75278 0,7.13548 -4.50396,12.19611 -11.61414,12.77808 l 14.77703,20.77387 -6.32579,0 -14.04323,-20.31841 -1.31577,0 0,20.31841 z"
       style="fill:#231f20;fill-opacity:1;fill-rule:nonzero;stroke:none"
       id="path332"
       inkscape:connector-curvature="0" />
    <path
       d="m 903.97195,242.12718 c 11.23459,0 16.52294,3.89668 16.52294,12.29732 0,6.88245 -4.42805,11.69004 -11.23459,12.32262 l -0.8603,0.081 c 0,0 13.71429,19.28099 14.67581,20.67266 l -5.31366,0 0,-0.0202 c 0,-0.32995 -13.68899,-20.09069 -13.68899,-20.09069 l -1.67001,-0.22874 -0.40485,0 0,20.34372 -4.20032,0 0,-45.36852 6.17397,0 z m -6.68003,-0.93521 -0.50606,0 0,47.26625 6.12336,0 0,-20.34372 0.8097,0 c 0,0.37854 13.66369,20.1666 13.66369,20.1666 l 6.70533,0.18218 0.8603,0 c 0,0 -14.09384,-19.83765 -14.85293,-20.92569 6.88245,-0.96152 11.31049,-5.97154 11.31049,-13.10702 0,-8.93201 -5.6932,-13.23354 -17.43385,-13.23354 l -6.68003,0 z"
       style="fill:#231f20;fill-opacity:1;fill-rule:nonzero;stroke:none"
       id="path334"
       inkscape:connector-curvature="0" />
    <path
       d="m 903.97195,246.90947 c 5.94623,0 11.3105,0.60727 11.3105,7.89457 0,6.85715 -5.71851,7.79337 -11.23459,7.79337 l -1.13966,0 0,-15.68794 1.06274,0 z m -1.5688,-0.96152 -0.40485,0 0,17.58567 2.04956,0 c 5.6426,0 12.19611,-0.96151 12.19611,-8.72958 0,-8.1476 -6.32579,-8.85609 -12.27202,-8.85609 l -1.5688,0 z"
       style="fill:#231f20;fill-opacity:1;fill-rule:nonzero;stroke:none"
       id="path336"
       inkscape:connector-curvature="0" />
    <path
       d="m 970.79752,241.67172 6.93306,0 -21.71009,21.55827 22.49448,24.74646 -7.18609,0 -18.97735,-21.25463 -1.28944,1.31576 0,19.93887 -5.13654,0 0,-46.30473 5.13654,0 0,19.81235 19.73644,-19.81235 z"
       style="fill:#231f20;fill-opacity:1;fill-rule:nonzero;stroke:none"
       id="path338"
       inkscape:connector-curvature="0" />
    <path
       d="m 976.61724,242.12718 c -1.59511,1.49389 -21.25463,21.0775 -21.25463,21.0775 0,0 20.62205,22.79813 22.08963,24.29101 l -6.12336,0 0,-0.0202 c 0,-0.22874 -18.67371,-21.10281 -18.67371,-21.10281 l -0.25303,-0.35627 -1.67001,1.64369 c 0,0 -0.12145,18.90144 -0.12145,19.83765 l -4.20032,0 0,-45.36851 4.20032,0 0,20.54614 c 0,0 20.09069,-20.2425 20.36902,-20.54614 l 5.6426,0 z m 1.11334,-0.93521 -7.13549,0 c 0,0 -17.50976,17.61098 -19.02795,19.10387 l 0,-19.10387 -6.09806,0 0,47.26625 6.09806,0 0,-20.39432 c 0.0405,0.0202 0.48177,-0.30364 0.75909,-0.63157 0.63157,0.6842 18.64841,20.90039 18.64841,20.90039 l 7.54033,0.12145 1.06273,0 c 0,0 -22.31736,-24.59464 -22.92463,-25.22722 0.60727,-0.63157 22.24145,-22.03903 22.24145,-22.03903 l -1.16394,0 z"
       style="fill:#231f20;fill-opacity:1;fill-rule:nonzero;stroke:none"
       id="path340"
       inkscape:connector-curvature="0" />
  </g>
</svg>
