<?xml version="1.0" encoding="utf-8"?>
<!-- Generator: Adobe Illustrator 19.2.1, SVG Export Plug-In . SVG Version: 6.00 Build 0)  -->
<svg version="1.1" id="Слой_1" xmlns="http://www.w3.org/2000/svg" xmlns:xlink="http://www.w3.org/1999/xlink" x="0px" y="0px"
	 viewBox="0 0 37.9 22.1" style="enable-background:new 0 0 37.9 22.1;" xml:space="preserve">
<style type="text/css">
	.st0{fill:#E9323B;}
</style>
<path class="st0" d="M35.9,3.4c-1.2-0.6-4.1-2.1-5.4-2.8l-0.4-0.2c-2.8-1.1-5.5,1-5.5,1.1L10.5,11.8c-1,0.7-2.2,0.1-2.6-0.3
	c-0.7-0.7-1.2-1.4-1.6-2c-1-1.3-3.1-1-4.5,0.1c-1.7,1.2-2.2,2.9-1.4,4.3c1.2,2,3.3,5.1,4.2,6.4l0.2,0.3c0.7,1,1.9,1.5,3.1,1.5
	c0.5,0,1.1-0.1,1.5-0.3c0.8-0.4,5.9-3.2,8-4.4l2.5,3.7c0.6,0.8,1.8,0.9,3.4,0.1c1.5-0.7,2.1-1.5,1.9-2.3c-0.1-0.4-0.8-2.8-1.2-4.4
	c2.4-1.1,9.6-4.3,11.4-5.1c1.7-0.8,2.6-2,2.7-3.3C37.9,5.1,37.2,4.1,35.9,3.4z M29.3,2.2l0.3,0.2c0.6,0.3,1.5,0.8,2.5,1.3l-4.7,2.5
	c-0.3,0.1-0.6-0.3-0.6-0.3c-0.1-0.3-0.9-1.7-1.3-2.6L25.8,3C25.8,3,27.6,1.5,29.3,2.2z M34.5,7.7c-2.1,0.9-11.8,5.2-12.2,5.4
	l-0.8,0.3l0.2,0.8c0,0.2,0.9,3.5,1.3,4.8c-0.4,0.3-1.2,0.7-1.7,0.7l-3.4-5l-0.8,0.4C15,16.5,9.2,19.7,8.5,20c-0.5,0.3-1.6,0.1-2-0.5
	l-0.2-0.3c-0.8-1.2-3-4.5-4.2-6.4c-0.4-0.7,0.8-1.6,0.8-1.6c0.8-0.6,1.6-0.6,1.8-0.4c0.5,0.6,1,1.3,1.7,2.1c1,1.1,3.4,1.9,5.3,0.6
	l12.1-9c0.5,0.9,1,2,1.2,2.3c0.2,0.5,0.8,1.1,1.6,1.3c0.2,0.1,0.5,0.1,0.7,0.1c0.4,0,0.7-0.1,1.1-0.3l5.9-3.1
	c0.3,0.2,0.6,0.3,0.9,0.4c0.6,0.3,0.9,0.7,0.9,1.1C35.9,6.8,35.3,7.3,34.5,7.7z"/>
</svg>
