<?xml version="1.0" encoding="utf-8"?>
<!-- Generator: Adobe Illustrator 19.2.1, SVG Export Plug-In . SVG Version: 6.00 Build 0)  -->
<svg version="1.1" id="Слой_1" xmlns="http://www.w3.org/2000/svg" xmlns:xlink="http://www.w3.org/1999/xlink" x="0px" y="0px"
	 viewBox="0 0 27.3 33.9" style="enable-background:new 0 0 27.3 33.9;" xml:space="preserve">
<style type="text/css">
	.st0{fill:#E9303A;}
</style>
<g>
	<path class="st0" d="M23.6,0.2C23.6,0.2,23.6,0.2,23.6,0.2c-1.1-0.5-3.1,0.2-3.9,0.5c-2,0.8-8.9,4.2-13.2,14.3
		c-4.1,0.8-6.4,7-6.5,7.3c-0.2,0.5,0.1,1,0.5,1.3l6,2.7c0.1,0.1,0.3,0.1,0.4,0.1c0.1,0,0.3,0,0.4-0.1c0.3-0.1,0.5-0.3,0.5-0.6
		L8.7,23l4.6,2.1l4.7,2.2l-1.3,2.4c-0.1,0.2-0.2,0.5-0.1,0.8s0.3,0.5,0.5,0.6l6,2.7c0.1,0.1,0.3,0.1,0.4,0.1c0.1,0,0.2,0,0.4-0.1
		c0.2-0.1,0.4-0.3,0.6-0.5c0.1-0.3,2.8-6.3,0.5-9.9C29.9,11,25.8,1.2,23.6,0.2z M6.3,23.9l-4-1.8c0.8-1.7,2.3-4.3,4.1-5L7,21.5
		L6.3,23.9z M9,20.9L8.2,16c4-9.7,10.7-13.2,13.4-13.9c0,0,0,0,0,0c0,0,0.8-0.2,1.1-0.1c0.3,0.1,0.7,1,0.7,1
		c1.4,2.7,3.5,10.1-0.3,19.8l-2.7,2l-1.1,0.8L9,20.9z M23.1,31.5l-4-1.8l1.2-2.2l0.3-0.2l3.1-2.3C24.4,26.8,23.7,29.8,23.1,31.5z"/>
	<path class="st0" d="M22.1,13.9c0-1.4-0.7-2.6-1.7-3.4c0,0,0,0,0,0c-0.5-0.4-1.2-0.7-1.8-0.8c0,0,0,0,0,0c-0.2,0-0.4-0.1-0.6-0.1
		c-2.3,0-4.2,1.9-4.2,4.2c0,1.4,0.7,2.6,1.8,3.4c0,0,0,0,0,0c0.5,0.4,1.2,0.6,1.9,0.7c0,0,0,0,0,0c0.2,0,0.4,0.1,0.6,0.1
		C20.2,18.1,22.1,16.2,22.1,13.9z M17.9,17.1c-0.1,0-0.1,0-0.2,0c0,0,0,0,0,0c-0.7,0-1.3-0.3-1.9-0.7c0,0,0,0,0,0
		c-0.7-0.6-1.1-1.5-1.1-2.4c0-1.8,1.4-3.2,3.2-3.2c0.1,0,0.2,0,0.2,0c0,0,0,0,0,0c0.7,0.1,1.3,0.3,1.8,0.8c0,0,0,0,0,0
		c0.7,0.6,1.1,1.4,1.1,2.4C21.1,15.7,19.7,17.1,17.9,17.1z"/>
</g>
</svg>
