<?xml version="1.0" encoding="utf-8"?>
<!-- Generator: Adobe Illustrator 19.2.1, SVG Export Plug-In . SVG Version: 6.00 Build 0)  -->
<svg version="1.1" id="Слой_1" xmlns="http://www.w3.org/2000/svg" xmlns:xlink="http://www.w3.org/1999/xlink" x="0px" y="0px"
	 viewBox="0 0 29.3 24.8" style="enable-background:new 0 0 29.3 24.8;" xml:space="preserve">
<style type="text/css">
	.st0{fill:#E9323B;}
</style>
<path class="st0" d="M29.3,11.4l-4.4-5.7h-4.4V0H0v18.5h2.9c-0.3,0.6-0.5,1.3-0.5,2c0,2.4,1.9,4.3,4.3,4.3s4.3-1.9,4.3-4.3
	c0-0.7-0.2-1.4-0.5-2h8h0.5c-0.3,0.6-0.5,1.3-0.5,2c0,2.4,1.9,4.3,4.3,4.3s4.3-1.9,4.3-4.3c0-0.7-0.2-1.4-0.5-2h2.6V11.4z M9,20.5
	c0,1.3-1,2.3-2.3,2.3s-2.3-1-2.3-2.3c0-0.9,0.5-1.6,1.2-2h2.3C8.6,18.9,9,19.6,9,20.5z M18.5,16.5H8.3H5.2H2V2h16.5v3.8V16.5z
	 M25.2,20.5c0,1.3-1,2.3-2.3,2.3s-2.3-1-2.3-2.3c0-0.9,0.5-1.6,1.2-2H24C24.7,18.9,25.2,19.6,25.2,20.5z M27.3,16.5h-2.9h-3.1h-0.7
	V7.8h3.4l3.4,4.3V16.5z"/>
</svg>
