<?xml version="1.0" encoding="utf-8"?>
<!-- Generator: Adobe Illustrator 19.2.1, SVG Export Plug-In . SVG Version: 6.00 Build 0)  -->
<svg version="1.1" id="Слой_1" xmlns="http://www.w3.org/2000/svg" xmlns:xlink="http://www.w3.org/1999/xlink" x="0px" y="0px"
	 viewBox="0 0 2104 670.8" style="enable-background:new 0 0 2104 670.8;" xml:space="preserve">
<style type="text/css">
	.st0{fill:#2566AF;}
	.st1{fill:#E6A540;}
	.st2{fill:none;}
</style>
<g>
	<path class="st0" d="M912.1,659.4H740.4L847.7,0h171.7L912.1,659.4z M596,0L432.3,453.5l-19.4-97.7l0,0L355.2,59.4
		c0,0-7-59.4-81.4-59.4H3.2L0,11.2c0,0,82.7,17.2,179.6,75.4l149.2,572.9h178.9L780.8,0L596,0L596,0z M1946.3,659.4H2104L1966.5,0
		h-138c-63.7,0-79.3,49.1-79.3,49.1l-256,610.3h179l35.8-97.9h218.2L1946.3,659.4L1946.3,659.4z M1757.4,426.2l90.2-246.8
		l50.7,246.8H1757.4z M1506.6,158.6L1531.1,17c0,0-75.6-28.8-154.4-28.8c-85.2,0-287.5,37.2-287.5,218.3
		c0,170.4,237.5,172.5,237.5,262s-213,73.4-283.3,17l-25.5,148.1c0,0,76.7,37.2,193.8,37.2c117.2,0,293.9-60.7,293.9-225.8
		c0-171.5-239.6-187.4-239.6-262C1266,108.5,1433.2,118.1,1506.6,158.6L1506.6,158.6z"/>
</g>
<path class="st1" d="M413,355.9L355.2,59.4c0,0-7-59.4-81.4-59.4H3.2L0,11.1c0,0,130.1,27,254.8,127.9
	C374.1,235.6,413,355.9,413,355.9z"/>
<path class="st2" d="M-198-920.5h2500v2500H-198V-920.5z"/>
</svg>
